<svg width="64" height="64" viewBox="0 0 64 64" fill="none" xmlns="http://www.w3.org/2000/svg">
  <defs>
    <linearGradient id="g" x1="8" y1="8" x2="56" y2="56" gradientUnits="userSpaceOnUse">
      <stop stop-color="#34D399"/>
      <stop offset="1" stop-color="#059669"/>
    </linearGradient>
  </defs>
  <rect x="4" y="4" width="56" height="56" rx="28" fill="url(#g)"/>
  <path d="M22 17.5C22 16.67 22.67 16 23.5 16H28.2C28.96 16 29.61 16.52 29.78 17.26L31.22 23.44C31.35 24.01 31.18 24.6 30.76 25.02L28.14 27.65C30.06 31.18 32.82 33.95 36.36 35.88L38.99 33.25C39.41 32.83 40 32.66 40.57 32.79L46.75 34.23C47.49 34.4 48.01 35.05 48.01 35.81V40.5C48.01 41.33 47.34 42 46.51 42H44.6C32.39 42 22 31.61 22 19.4V17.5Z" fill="white"/>
</svg>
